<mxfile host="app.diagrams.net" modified="2022-06-04T12:15:38.435Z" agent="5.0 (Windows NT 10.0; Win64; x64) AppleWebKit/537.36 (KHTML, like Gecko) Chrome/102.0.0.0 Safari/537.36" etag="65A8jT1qCysqWfA1VQx5" version="19.0.0" type="github">
  <diagram id="nt5NHJB-GRtAsk9PRiz3" name="Page-1">
    <mxGraphModel dx="1021" dy="529" grid="0" gridSize="15" guides="1" tooltips="1" connect="1" arrows="1" fold="1" page="1" pageScale="1" pageWidth="827" pageHeight="1169" math="0" shadow="0">
      <root>
        <mxCell id="0" />
        <mxCell id="1" parent="0" />
        <mxCell id="OYTlTNYPBWA1YwI1u3wY-1" value="" style="rounded=0;whiteSpace=wrap;html=1;gradientColor=none;" vertex="1" parent="1">
          <mxGeometry x="317" y="53" width="120" height="60" as="geometry" />
        </mxCell>
      </root>
    </mxGraphModel>
  </diagram>
</mxfile>
